<?xml version="1.0" standalone="no"?>
<svg xmlns="http://www.w3.org/2000/svg" viewBox="0 0 100.882 116.488" width="100.882" height="116.488"><polygon fill="#000000" points="100.882,29.122 100.882,87.366 50.441,116.488 0,87.366 0,29.122 50.441,0" mask="url(#iconBelowInitialsInInvertedHexagonTextMask)"></polygon><mask id="iconBelowInitialsInInvertedHexagonTextMask"><rect x="0" y="0" width="100%" height="100%" fill="white"></rect><path fill="black" fill-rule="nonzero" d="M0 19.35L0 19.35L3.47 0.11Q3.50 0 3.61 0L3.61 0L7.67 0Q7.78 0 7.81 0.11L7.81 0.11L11.14 19.35Q11.17 19.49 11.03 19.49L11.03 19.49L7.92 19.49Q7.81 19.49 7.78 19.35L7.78 19.35L7.48 17.30L3.67 17.30L3.36 19.35Q3.33 19.49 3.22 19.49L3.22 19.49L0.11 19.49Q0 19.49 0 19.35ZM5.49 6.44L4.23 14.31L6.92 14.31L5.77 6.44L5.60 5.40L5.49 6.44Z" transform="translate(44.867, 23.5)" color="black"></path><g fill="black" color="black" transform="translate(28.441000000000003 50.988) scale(1.0476191)"><svg width="42.0" height="42.0" x="0.0" y="0.0" viewBox="0 0 42 42"><path fill="currentColor" fill-rule="nonzero" d="M21 41.41L41.41.59H.59L21 41.41zm0-7.61l-11.5-23h15.4l-1.7 3.4H15l6 12 9.4-18.8H7.8L6.1 4h29.8L21 33.8z"></path></svg></g></mask></svg>