<?xml version="1.0" standalone="no"?>
<svg xmlns="http://www.w3.org/2000/svg" viewBox="0 0 180.984 29" width="180.984" height="29"><g fill="#000000" color="#000000" transform="translate(0, 0) scale(0.6904762)"><svg width="42.0" height="42.0" x="0.0" y="0.0" viewBox="0 0 42 42"><path fill="currentColor" fill-rule="nonzero" d="M21 41.41L41.41.59H.59L21 41.41zm0-7.61l-11.5-23h15.4l-1.7 3.4H15l6 12 9.4-18.8H7.8L6.1 4h29.8L21 33.8z"></path></svg></g><line x1="41" y1="1" x2="41" y2="28" stroke="#000000" stroke-linecap="round"></line><path fill="#000000" fill-rule="nonzero" d="M0 16.82L0 16.82L2.98 0.34Q3 0.24 3.10 0.24L3.10 0.24L6.58 0.24Q6.67 0.24 6.70 0.34L6.70 0.34L9.55 16.82Q9.58 16.94 9.46 16.94L9.46 16.94L6.79 16.94Q6.70 16.94 6.67 16.82L6.67 16.82L6.41 15.07L3.14 15.07L2.88 16.82Q2.86 16.94 2.76 16.94L2.76 16.94L0.10 16.94Q0 16.94 0 16.82ZM4.70 5.76L3.62 12.50L5.93 12.50L4.94 5.76L4.80 4.87L4.70 5.76ZM18.91 16.94L11.16 16.94Q11.06 16.94 11.06 16.82L11.06 16.82L11.09 0.36Q11.09 0.24 11.21 0.24L11.21 0.24L13.87 0.24Q13.99 0.24 13.99 0.36L13.99 0.36L13.97 13.99L18.91 13.99Q19.03 13.99 19.03 14.11L19.03 14.11L19.03 16.82Q19.03 16.94 18.91 16.94L18.91 16.94ZM24.26 16.94L21.36 16.94Q21.26 16.94 21.24 16.82L21.24 16.82L18.41 0.34Q18.38 0.24 18.48 0.24L18.48 0.24L21.17 0.24Q21.26 0.24 21.29 0.34L21.29 0.34L22.82 11.18L24.41 0.34Q24.43 0.24 24.55 0.24L24.55 0.24L26.71 0.24Q26.81 0.24 26.83 0.34L26.83 0.34L28.39 11.18L29.95 0.34Q29.98 0.24 30.07 0.24L30.07 0.24L32.74 0.24Q32.86 0.24 32.83 0.34L32.83 0.34L29.98 16.82Q29.95 16.87 29.90 16.91Q29.86 16.94 29.86 16.94L29.86 16.94L26.95 16.94Q26.88 16.94 26.83 16.82L26.83 16.82L25.61 8.21L24.38 16.82Q24.36 16.94 24.26 16.94L24.26 16.94ZM32.42 16.82L32.42 16.82L35.40 0.34Q35.42 0.24 35.52 0.24L35.52 0.24L39.00 0.24Q39.10 0.24 39.12 0.34L39.12 0.34L41.98 16.82Q42.00 16.94 41.88 16.94L41.88 16.94L39.22 16.94Q39.12 16.94 39.10 16.82L39.10 16.82L38.83 15.07L35.57 15.07L35.30 16.82Q35.28 16.94 35.18 16.94L35.18 16.94L32.52 16.94Q32.42 16.94 32.42 16.82ZM37.13 5.76L36.05 12.50L38.35 12.50L37.37 5.76L37.22 4.87L37.13 5.76ZM47.42 16.94L44.66 16.94Q44.59 16.94 44.59 16.85L44.59 16.85L44.62 10.03L41.40 0.34Q41.38 0.24 41.47 0.24L41.47 0.24L44.14 0.24Q44.26 0.24 44.28 0.34L44.28 0.34L46.06 6.79L47.86 0.34Q47.88 0.24 47.98 0.24L47.98 0.24L50.66 0.24Q50.76 0.24 50.74 0.34L50.74 0.34L47.50 9.94L47.52 16.85Q47.52 16.94 47.42 16.94L47.42 16.94ZM55.66 17.18L55.66 17.18Q54.36 17.18 53.29 16.52Q52.22 15.86 51.59 14.77Q50.95 13.68 50.95 12.36L50.95 12.36L50.95 11.26Q50.95 11.14 51.07 11.14L51.07 11.14L53.76 11.14Q53.86 11.14 53.86 11.26L53.86 11.26L53.86 12.36Q53.86 13.15 54.38 13.72Q54.91 14.28 55.66 14.28L55.66 14.28Q56.40 14.28 56.93 13.70Q57.46 13.13 57.46 12.36L57.46 12.36Q57.46 11.47 56.30 10.82L56.30 10.82Q55.92 10.61 55.10 10.15Q54.29 9.70 53.57 9.29L53.57 9.29Q52.25 8.52 51.61 7.36Q50.98 6.19 50.98 4.73L50.98 4.73Q50.98 3.38 51.62 2.32Q52.27 1.25 53.34 0.62Q54.41 0 55.66 0L55.66 0Q56.93 0 58.00 0.64Q59.06 1.27 59.70 2.34Q60.34 3.41 60.34 4.73L60.34 4.73L60.34 6.70Q60.34 6.79 60.24 6.79L60.24 6.79L57.55 6.79Q57.46 6.79 57.46 6.70L57.46 6.70L57.43 4.73Q57.43 3.89 56.90 3.36Q56.38 2.83 55.66 2.83L55.66 2.83Q54.91 2.83 54.38 3.40Q53.86 3.96 53.86 4.73L53.86 4.73Q53.86 5.52 54.19 6.05Q54.53 6.58 55.42 7.06L55.42 7.06Q55.54 7.13 55.88 7.31Q56.23 7.49 56.64 7.72Q57.05 7.94 57.37 8.11Q57.70 8.28 57.77 8.33L57.77 8.33Q58.97 9 59.66 9.97Q60.36 10.94 60.36 12.36L60.36 12.36Q60.36 13.73 59.72 14.82Q59.09 15.91 58.02 16.55Q56.95 17.18 55.66 17.18ZM67.03 16.94L64.32 16.94Q64.22 16.94 64.22 16.82L64.22 16.82L64.22 3.14L61.10 3.14Q60.98 3.14 60.98 3.02L60.98 3.02L61.01 0.34Q61.01 0.24 61.10 0.24L61.10 0.24L70.22 0.24Q70.34 0.24 70.34 0.34L70.34 0.34L70.34 3.02Q70.34 3.14 70.25 3.14L70.25 3.14L67.10 3.14L67.13 16.82Q67.13 16.94 67.03 16.94L67.03 16.94ZM74.33 16.94L71.62 16.94Q71.52 16.94 71.52 16.82L71.52 16.82L71.57 0.34Q71.57 0.24 71.66 0.24L71.66 0.24L76.51 0.24Q77.81 0.24 78.90 0.88Q79.99 1.51 80.64 2.58Q81.29 3.65 81.29 4.99L81.29 4.99Q81.29 5.88 81.02 6.59Q80.76 7.30 80.40 7.79Q80.04 8.28 79.75 8.52L79.75 8.52Q81.05 9.96 81.05 11.90L81.05 11.90L81.07 16.82Q81.07 16.94 80.95 16.94L80.95 16.94L78.24 16.94Q78.14 16.94 78.14 16.87L78.14 16.87L78.14 11.90Q78.14 11.04 77.53 10.40Q76.92 9.77 76.03 9.77L76.03 9.77L74.45 9.77L74.42 16.82Q74.42 16.94 74.33 16.94L74.33 16.94ZM74.45 3.12L74.45 6.89L76.51 6.89Q77.26 6.89 77.83 6.34Q78.41 5.78 78.41 4.99L78.41 4.99Q78.41 4.22 77.84 3.67Q77.28 3.12 76.51 3.12L76.51 3.12L74.45 3.12ZM82.27 16.82L82.27 16.82L85.25 0.34Q85.27 0.24 85.37 0.24L85.37 0.24L88.85 0.24Q88.94 0.24 88.97 0.34L88.97 0.34L91.82 16.82Q91.85 16.94 91.73 16.94L91.73 16.94L89.06 16.94Q88.97 16.94 88.94 16.82L88.94 16.82L88.68 15.07L85.42 15.07L85.15 16.82Q85.13 16.94 85.03 16.94L85.03 16.94L82.37 16.94Q82.27 16.94 82.27 16.82ZM86.98 5.76L85.90 12.50L88.20 12.50L87.22 5.76L87.07 4.87L86.98 5.76ZM97.39 16.94L94.49 16.94Q94.39 16.94 94.37 16.82L94.37 16.82L91.06 0.34Q91.03 0.24 91.15 0.24L91.15 0.24L93.86 0.24Q93.96 0.24 93.98 0.34L93.98 0.34L95.95 11.33L97.87 0.34Q97.90 0.24 97.99 0.24L97.99 0.24L100.68 0.24Q100.80 0.24 100.78 0.34L100.78 0.34L97.51 16.82Q97.49 16.94 97.39 16.94L97.39 16.94ZM110.04 16.94L102.29 16.94Q102.19 16.94 102.19 16.82L102.19 16.82L102.22 0.34Q102.22 0.24 102.31 0.24L102.31 0.24L110.02 0.24Q110.11 0.24 110.11 0.36L110.11 0.36L110.11 3.05Q110.11 3.14 110.02 3.14L110.02 3.14L105.10 3.14L105.10 6.89L110.02 6.89Q110.11 6.89 110.11 6.98L110.11 6.98L110.14 9.70Q110.14 9.79 110.04 9.79L110.04 9.79L105.10 9.79L105.10 13.99L110.04 13.99Q110.14 13.99 110.14 14.11L110.14 14.11L110.14 16.85Q110.14 16.94 110.04 16.94L110.04 16.94ZM120.12 16.94L112.37 16.94Q112.27 16.94 112.27 16.82L112.27 16.82L112.30 0.36Q112.30 0.24 112.42 0.24L112.42 0.24L115.08 0.24Q115.20 0.24 115.20 0.36L115.20 0.36L115.18 13.99L120.12 13.99Q120.24 13.99 120.24 14.11L120.24 14.11L120.24 16.82Q120.24 16.94 120.12 16.94L120.12 16.94ZM125.28 17.18L125.28 17.18Q123.98 17.18 122.92 16.52Q121.85 15.86 121.21 14.77Q120.58 13.68 120.58 12.36L120.58 12.36L120.58 11.26Q120.58 11.14 120.70 11.14L120.70 11.14L123.38 11.14Q123.48 11.14 123.48 11.26L123.48 11.26L123.48 12.36Q123.48 13.15 124.01 13.72Q124.54 14.28 125.28 14.28L125.28 14.28Q126.02 14.28 126.55 13.70Q127.08 13.13 127.08 12.36L127.08 12.36Q127.08 11.47 125.93 10.82L125.93 10.82Q125.54 10.61 124.73 10.15Q123.91 9.70 123.19 9.29L123.19 9.29Q121.87 8.52 121.24 7.36Q120.60 6.19 120.60 4.73L120.60 4.73Q120.60 3.38 121.25 2.32Q121.90 1.25 122.96 0.62Q124.03 0 125.28 0L125.28 0Q126.55 0 127.62 0.64Q128.69 1.27 129.32 2.34Q129.96 3.41 129.96 4.73L129.96 4.73L129.96 6.70Q129.96 6.79 129.86 6.79L129.86 6.79L127.18 6.79Q127.08 6.79 127.08 6.70L127.08 6.70L127.06 4.73Q127.06 3.89 126.53 3.36Q126.00 2.83 125.28 2.83L125.28 2.83Q124.54 2.83 124.01 3.40Q123.48 3.96 123.48 4.73L123.48 4.73Q123.48 5.52 123.82 6.05Q124.15 6.58 125.04 7.06L125.04 7.06Q125.16 7.13 125.51 7.31Q125.86 7.49 126.26 7.72Q126.67 7.94 127.00 8.11Q127.32 8.28 127.39 8.33L127.39 8.33Q128.59 9 129.29 9.97Q129.98 10.94 129.98 12.36L129.98 12.36Q129.98 13.73 129.35 14.82Q128.71 15.91 127.64 16.55Q126.58 17.18 125.28 17.18Z" transform="translate(51, 6.029)"></path></svg>